<mxfile host="app.diagrams.net" modified="2024-03-14T15:20:52.133Z" agent="Mozilla/5.0 (X11; Linux x86_64; rv:123.0) Gecko/20100101 Firefox/123.0" etag="8LThtgvKsPkrscYYP9dU" version="24.0.0" type="device">
  <diagram id="C5RBs43oDa-KdzZeNtuy" name="Page-1">
    <mxGraphModel dx="1560" dy="876" grid="1" gridSize="10" guides="1" tooltips="1" connect="1" arrows="1" fold="1" page="1" pageScale="1" pageWidth="827" pageHeight="1169" math="0" shadow="0">
      <root>
        <mxCell id="WIyWlLk6GJQsqaUBKTNV-0" />
        <mxCell id="WIyWlLk6GJQsqaUBKTNV-1" parent="WIyWlLk6GJQsqaUBKTNV-0" />
        <mxCell id="pIREazu69p32p8xXgBJM-4" value="" style="rounded=0;whiteSpace=wrap;html=1;strokeWidth=5;strokeColor=#66B2FF;" vertex="1" parent="WIyWlLk6GJQsqaUBKTNV-1">
          <mxGeometry x="30" y="270" width="360" height="550" as="geometry" />
        </mxCell>
        <mxCell id="pIREazu69p32p8xXgBJM-3" value="&lt;div&gt;&lt;span style=&quot;font-size:13.999999999999998pt;font-family:&#39;Open Sans&#39;,sans-serif;color:#000000;background-color:transparent;font-weight:700;font-style:normal;font-variant:normal;text-decoration:none;vertical-align:baseline;white-space:pre;white-space:pre-wrap;&quot;&gt;Continuous&lt;/span&gt;&lt;/div&gt;&lt;br&gt;&lt;ul style=&quot;margin-top:0;margin-bottom:0;padding-inline-start:48px;&quot;&gt;&lt;li aria-level=&quot;1&quot; style=&quot;list-style-type:disc;font-size:13.999999999999998pt;font-family:&#39;Open Sans&#39;,sans-serif;color:#000000;background-color:transparent;font-weight:400;font-style:normal;font-variant:normal;text-decoration:none;vertical-align:baseline;white-space:pre;&quot; dir=&quot;ltr&quot;&gt;&lt;p role=&quot;presentation&quot; style=&quot;line-height:1.2;margin-top:0pt;margin-bottom:0pt;&quot; dir=&quot;ltr&quot;&gt;&lt;span style=&quot;font-size:13.999999999999998pt;font-family:&#39;Open Sans&#39;,sans-serif;color:#000000;background-color:transparent;font-weight:400;font-style:normal;font-variant:normal;text-decoration:none;vertical-align:baseline;white-space:pre;white-space:pre-wrap;&quot;&gt;Sliding Window Correlation&lt;/span&gt;&lt;/p&gt;&lt;/li&gt;&lt;li aria-level=&quot;1&quot; style=&quot;list-style-type:disc;font-size:13.999999999999998pt;font-family:&#39;Open Sans&#39;,sans-serif;color:#000000;background-color:transparent;font-weight:400;font-style:normal;font-variant:normal;text-decoration:none;vertical-align:baseline;white-space:pre;&quot; dir=&quot;ltr&quot;&gt;&lt;p role=&quot;presentation&quot; style=&quot;line-height:1.2;margin-top:0pt;margin-bottom:0pt;&quot; dir=&quot;ltr&quot;&gt;&lt;span style=&quot;font-size:13.999999999999998pt;font-family:&#39;Open Sans&#39;,sans-serif;color:#000000;background-color:transparent;font-weight:400;font-style:normal;font-variant:normal;text-decoration:none;vertical-align:baseline;white-space:pre;white-space:pre-wrap;&quot;&gt;Jackknife Correlation&lt;/span&gt;&lt;/p&gt;&lt;/li&gt;&lt;li aria-level=&quot;1&quot; style=&quot;list-style-type:disc;font-size:13.999999999999998pt;font-family:&#39;Open Sans&#39;,sans-serif;color:#000000;background-color:transparent;font-weight:400;font-style:normal;font-variant:normal;text-decoration:none;vertical-align:baseline;white-space:pre;&quot; dir=&quot;ltr&quot;&gt;&lt;p role=&quot;presentation&quot; style=&quot;line-height:1.2;margin-top:0pt;margin-bottom:0pt;&quot; dir=&quot;ltr&quot;&gt;&lt;span style=&quot;font-size:13.999999999999998pt;font-family:&#39;Open Sans&#39;,sans-serif;color:#000000;background-color:transparent;font-weight:400;font-style:normal;font-variant:normal;text-decoration:none;vertical-align:baseline;white-space:pre;white-space:pre-wrap;&quot;&gt;Flexible Least Squares&lt;/span&gt;&lt;/p&gt;&lt;/li&gt;&lt;li aria-level=&quot;1&quot; style=&quot;list-style-type:disc;font-size:13.999999999999998pt;font-family:&#39;Open Sans&#39;,sans-serif;color:#000000;background-color:transparent;font-weight:400;font-style:normal;font-variant:normal;text-decoration:none;vertical-align:baseline;white-space:pre;&quot; dir=&quot;ltr&quot;&gt;&lt;p role=&quot;presentation&quot; style=&quot;line-height:1.2;margin-top:0pt;margin-bottom:0pt;&quot; dir=&quot;ltr&quot;&gt;&lt;span style=&quot;font-size:13.999999999999998pt;font-family:&#39;Open Sans&#39;,sans-serif;color:#000000;background-color:transparent;font-weight:400;font-style:normal;font-variant:normal;text-decoration:none;vertical-align:baseline;white-space:pre;white-space:pre-wrap;&quot;&gt;Spatial Distance&lt;/span&gt;&lt;/p&gt;&lt;/li&gt;&lt;li aria-level=&quot;1&quot; style=&quot;list-style-type:disc;font-size:13.999999999999998pt;font-family:&#39;Open Sans&#39;,sans-serif;color:#000000;background-color:transparent;font-weight:400;font-style:normal;font-variant:normal;text-decoration:none;vertical-align:baseline;white-space:pre;&quot; dir=&quot;ltr&quot;&gt;&lt;p role=&quot;presentation&quot; style=&quot;line-height:1.2;margin-top:0pt;margin-bottom:0pt;&quot; dir=&quot;ltr&quot;&gt;&lt;span style=&quot;font-size:13.999999999999998pt;font-family:&#39;Open Sans&#39;,sans-serif;color:#000000;background-color:transparent;font-weight:400;font-style:normal;font-variant:normal;text-decoration:none;vertical-align:baseline;white-space:pre;white-space:pre-wrap;&quot;&gt;Temporal Derivatives&lt;/span&gt;&lt;/p&gt;&lt;/li&gt;&lt;li aria-level=&quot;1&quot; style=&quot;list-style-type:disc;font-size:13.999999999999998pt;font-family:&#39;Open Sans&#39;,sans-serif;color:#000000;background-color:transparent;font-weight:400;font-style:normal;font-variant:normal;text-decoration:none;vertical-align:baseline;white-space:pre;&quot; dir=&quot;ltr&quot;&gt;&lt;p role=&quot;presentation&quot; style=&quot;line-height:1.2;margin-top:0pt;margin-bottom:0pt;&quot; dir=&quot;ltr&quot;&gt;&lt;span style=&quot;font-size:13.999999999999998pt;font-family:&#39;Open Sans&#39;,sans-serif;color:#000000;background-color:transparent;font-weight:400;font-style:normal;font-variant:normal;text-decoration:none;vertical-align:baseline;white-space:pre;white-space:pre-wrap;&quot;&gt;Phase Synchronization&lt;/span&gt;&lt;/p&gt;&lt;/li&gt;&lt;li aria-level=&quot;1&quot; style=&quot;list-style-type:disc;font-size:13.999999999999998pt;font-family:&#39;Open Sans&#39;,sans-serif;color:#000000;background-color:transparent;font-weight:400;font-style:normal;font-variant:normal;text-decoration:none;vertical-align:baseline;white-space:pre;&quot; dir=&quot;ltr&quot;&gt;&lt;p role=&quot;presentation&quot; style=&quot;line-height:1.2;margin-top:0pt;margin-bottom:0pt;&quot; dir=&quot;ltr&quot;&gt;&lt;span style=&quot;font-size:13.999999999999998pt;font-family:&#39;Open Sans&#39;,sans-serif;color:#000000;background-color:transparent;font-weight:400;font-style:normal;font-variant:normal;text-decoration:none;vertical-align:baseline;white-space:pre;white-space:pre-wrap;&quot;&gt;Leading Eigenvector Dynamics&lt;/span&gt;&lt;/p&gt;&lt;/li&gt;&lt;li aria-level=&quot;1&quot; style=&quot;list-style-type:disc;font-size:13.999999999999998pt;font-family:&#39;Open Sans&#39;,sans-serif;color:#000000;background-color:transparent;font-weight:400;font-style:normal;font-variant:normal;text-decoration:none;vertical-align:baseline;white-space:pre;&quot; dir=&quot;ltr&quot;&gt;&lt;span style=&quot;font-size:13.999999999999998pt;font-family:&#39;Open Sans&#39;,sans-serif;color:#000000;background-color:transparent;font-weight:400;font-style:normal;font-variant:normal;text-decoration:none;vertical-align:baseline;white-space:pre;white-space:pre-wrap;&quot;&gt;Wavelet Coherence&lt;/span&gt;&lt;/li&gt;&lt;li aria-level=&quot;1&quot; style=&quot;list-style-type:disc;font-size:13.999999999999998pt;font-family:&#39;Open Sans&#39;,sans-serif;color:#000000;background-color:transparent;font-weight:400;font-style:normal;font-variant:normal;text-decoration:none;vertical-align:baseline;white-space:pre;&quot; dir=&quot;ltr&quot;&gt;&lt;span style=&quot;font-size:13.999999999999998pt;font-family:&#39;Open Sans&#39;,sans-serif;color:#000000;background-color:transparent;font-weight:400;font-style:normal;font-variant:normal;text-decoration:none;vertical-align:baseline;white-space:pre;white-space:pre-wrap;&quot;&gt;Edge-centric connectivity&lt;/span&gt;&lt;/li&gt;&lt;/ul&gt;&lt;div&gt;&lt;br&gt;&lt;/div&gt;&lt;p style=&quot;line-height:1.2;margin-top:0pt;margin-bottom:8pt;&quot; dir=&quot;ltr&quot;&gt;&lt;span style=&quot;font-size:13.999999999999998pt;font-family:&#39;Open Sans&#39;,sans-serif;color:#000000;background-color:transparent;font-weight:700;font-style:normal;font-variant:normal;text-decoration:none;vertical-align:baseline;white-space:pre;white-space:pre-wrap;&quot;&gt;State-Based&lt;/span&gt;&lt;/p&gt;&lt;ul style=&quot;margin-top:0;margin-bottom:0;padding-inline-start:48px;&quot;&gt;&lt;li aria-level=&quot;1&quot; style=&quot;list-style-type:disc;font-size:13.999999999999998pt;font-family:&#39;Open Sans&#39;,sans-serif;color:#000000;background-color:transparent;font-weight:400;font-style:normal;font-variant:normal;text-decoration:none;vertical-align:baseline;white-space:pre;&quot; dir=&quot;ltr&quot;&gt;&lt;p role=&quot;presentation&quot; style=&quot;line-height:1.2;margin-top:0pt;margin-bottom:0pt;&quot; dir=&quot;ltr&quot;&gt;&lt;span style=&quot;font-size:13.999999999999998pt;font-family:&#39;Open Sans&#39;,sans-serif;color:#000000;background-color:transparent;font-weight:400;font-style:normal;font-variant:normal;text-decoration:none;vertical-align:baseline;white-space:pre;white-space:pre-wrap;&quot;&gt;Sliding Window Clustering&lt;/span&gt;&lt;/p&gt;&lt;/li&gt;&lt;li aria-level=&quot;1&quot; style=&quot;list-style-type:disc;font-size:13.999999999999998pt;font-family:&#39;Open Sans&#39;,sans-serif;color:#000000;background-color:transparent;font-weight:400;font-style:normal;font-variant:normal;text-decoration:none;vertical-align:baseline;white-space:pre;&quot; dir=&quot;ltr&quot;&gt;&lt;p role=&quot;presentation&quot; style=&quot;line-height:1.2;margin-top:0pt;margin-bottom:0pt;&quot; dir=&quot;ltr&quot;&gt;&lt;span style=&quot;font-size:13.999999999999998pt;font-family:&#39;Open Sans&#39;,sans-serif;color:#000000;background-color:transparent;font-weight:400;font-style:normal;font-variant:normal;text-decoration:none;vertical-align:baseline;white-space:pre;white-space:pre-wrap;&quot;&gt;Co-activation Patterns&lt;/span&gt;&lt;/p&gt;&lt;/li&gt;&lt;li aria-level=&quot;1&quot; style=&quot;list-style-type:disc;font-size:13.999999999999998pt;font-family:&#39;Open Sans&#39;,sans-serif;color:#000000;background-color:transparent;font-weight:400;font-style:normal;font-variant:normal;text-decoration:none;vertical-align:baseline;white-space:pre;&quot; dir=&quot;ltr&quot;&gt;&lt;p role=&quot;presentation&quot; style=&quot;line-height:1.2;margin-top:0pt;margin-bottom:0pt;&quot; dir=&quot;ltr&quot;&gt;&lt;span style=&quot;font-size:13.999999999999998pt;font-family:&#39;Open Sans&#39;,sans-serif;color:#000000;background-color:transparent;font-weight:400;font-style:normal;font-variant:normal;text-decoration:none;vertical-align:baseline;white-space:pre;white-space:pre-wrap;&quot;&gt;Discrete Hidden Markov&lt;/span&gt;&lt;/p&gt;&lt;/li&gt;&lt;li aria-level=&quot;1&quot; style=&quot;list-style-type:disc;font-size:13.999999999999998pt;font-family:&#39;Open Sans&#39;,sans-serif;color:#000000;background-color:transparent;font-weight:400;font-style:normal;font-variant:normal;text-decoration:none;vertical-align:baseline;white-space:pre;&quot; dir=&quot;ltr&quot;&gt;&lt;span style=&quot;font-size:13.999999999999998pt;font-family:&#39;Open Sans&#39;,sans-serif;color:#000000;background-color:transparent;font-weight:400;font-style:normal;font-variant:normal;text-decoration:none;vertical-align:baseline;white-space:pre;white-space:pre-wrap;&quot;&gt;Continuous Hidden Markov&lt;/span&gt;&lt;/li&gt;&lt;li aria-level=&quot;1&quot; style=&quot;list-style-type:disc;font-size:13.999999999999998pt;font-family:&#39;Open Sans&#39;,sans-serif;color:#000000;background-color:transparent;font-weight:400;font-style:normal;font-variant:normal;text-decoration:none;vertical-align:baseline;white-space:pre;&quot; dir=&quot;ltr&quot;&gt;&lt;span style=&quot;font-size:13.999999999999998pt;font-family:&#39;Open Sans&#39;,sans-serif;color:#000000;background-color:transparent;font-weight:400;font-style:normal;font-variant:normal;text-decoration:none;vertical-align:baseline;white-space:pre;white-space:pre-wrap;&quot;&gt;Windowless&lt;/span&gt;&lt;br&gt;&lt;span style=&quot;font-size:13.999999999999998pt;font-family:&#39;Open Sans&#39;,sans-serif;color:#000000;background-color:transparent;font-weight:400;font-style:normal;font-variant:normal;text-decoration:none;vertical-align:baseline;white-space:pre;white-space:pre-wrap;&quot;&gt;&lt;/span&gt;&lt;span style=&quot;font-size:13.999999999999998pt;font-family:&#39;Open Sans&#39;,sans-serif;color:#000000;background-color:transparent;font-weight:700;font-style:normal;font-variant:normal;text-decoration:none;vertical-align:baseline;white-space:pre;white-space:pre-wrap;&quot;&gt;&lt;/span&gt;&lt;span style=&quot;font-size:13.999999999999998pt;font-family:&#39;Open Sans&#39;,sans-serif;color:#000000;background-color:transparent;font-weight:700;font-style:normal;font-variant:normal;text-decoration:none;vertical-align:baseline;white-space:pre;white-space:pre-wrap;&quot;&gt;&lt;/span&gt;&lt;/li&gt;&lt;/ul&gt;&lt;br&gt;&lt;div&gt;&lt;p style=&quot;line-height:1.2;margin-top:0pt;margin-bottom:8pt;&quot; dir=&quot;ltr&quot;&gt;&lt;span style=&quot;font-size:13.999999999999998pt;font-family:&#39;Open Sans&#39;,sans-serif;color:#000000;background-color:transparent;font-weight:700;font-style:normal;font-variant:normal;text-decoration:none;vertical-align:baseline;white-space:pre;white-space:pre-wrap;&quot;&gt;Static&lt;/span&gt;&lt;/p&gt;&lt;/div&gt;&lt;ul style=&quot;margin-top:0;margin-bottom:0;padding-inline-start:48px;&quot;&gt;&lt;li aria-level=&quot;1&quot; style=&quot;list-style-type:disc;font-size:13.999999999999998pt;font-family:&#39;Open Sans&#39;,sans-serif;color:#000000;background-color:transparent;font-weight:400;font-style:normal;font-variant:normal;text-decoration:none;vertical-align:baseline;white-space:pre;&quot; dir=&quot;ltr&quot;&gt;&lt;p role=&quot;presentation&quot; style=&quot;line-height:1.2;margin-top:0pt;margin-bottom:0pt;&quot; dir=&quot;ltr&quot;&gt;&lt;span style=&quot;font-size:13.999999999999998pt;font-family:&#39;Open Sans&#39;,sans-serif;color:#000000;background-color:transparent;font-weight:400;font-style:normal;font-variant:normal;text-decoration:none;vertical-align:baseline;white-space:pre;white-space:pre-wrap;&quot;&gt;Pearson Correlation&lt;/span&gt;&lt;/p&gt;&lt;/li&gt;&lt;li aria-level=&quot;1&quot; style=&quot;list-style-type:disc;font-size:13.999999999999998pt;font-family:&#39;Open Sans&#39;,sans-serif;color:#000000;background-color:transparent;font-weight:400;font-style:normal;font-variant:normal;text-decoration:none;vertical-align:baseline;white-space:pre;&quot; dir=&quot;ltr&quot;&gt;&lt;p role=&quot;presentation&quot; style=&quot;line-height:1.2;margin-top:0pt;margin-bottom:0pt;&quot; dir=&quot;ltr&quot;&gt;&lt;span style=&quot;font-size:13.999999999999998pt;font-family:&#39;Open Sans&#39;,sans-serif;color:#000000;background-color:transparent;font-weight:400;font-style:normal;font-variant:normal;text-decoration:none;vertical-align:baseline;white-space:pre;white-space:pre-wrap;&quot;&gt;Partial Correlation&lt;/span&gt;&lt;/p&gt;&lt;/li&gt;&lt;li aria-level=&quot;1&quot; style=&quot;list-style-type:disc;font-size:13.999999999999998pt;font-family:&#39;Open Sans&#39;,sans-serif;color:#000000;background-color:transparent;font-weight:400;font-style:normal;font-variant:normal;text-decoration:none;vertical-align:baseline;white-space:pre;&quot; dir=&quot;ltr&quot;&gt;&lt;p role=&quot;presentation&quot; style=&quot;line-height:1.2;margin-top:0pt;margin-bottom:8pt;&quot; dir=&quot;ltr&quot;&gt;&lt;span style=&quot;font-size:13.999999999999998pt;font-family:&#39;Open Sans&#39;,sans-serif;color:#000000;background-color:transparent;font-weight:400;font-style:normal;font-variant:normal;text-decoration:none;vertical-align:baseline;white-space:pre;white-space:pre-wrap;&quot;&gt;Mutual Information&amp;nbsp;&lt;/span&gt;&lt;/p&gt;&lt;/li&gt;&lt;/ul&gt;" style="text;html=1;spacing=5;spacingTop=-20;whiteSpace=wrap;overflow=hidden;rounded=0;" vertex="1" parent="WIyWlLk6GJQsqaUBKTNV-1">
          <mxGeometry x="40" y="300" width="350" height="500" as="geometry" />
        </mxCell>
        <mxCell id="pIREazu69p32p8xXgBJM-5" value="" style="rounded=0;whiteSpace=wrap;html=1;strokeWidth=5;fillColor=#dae8fc;strokeColor=#66B2FF;" vertex="1" parent="WIyWlLk6GJQsqaUBKTNV-1">
          <mxGeometry x="30" y="230" width="360" height="40" as="geometry" />
        </mxCell>
        <mxCell id="pIREazu69p32p8xXgBJM-6" value="&lt;p id=&quot;docs-internal-guid-25a0acd7-7fff-86b3-eb7d-2be942f6d44b&quot; style=&quot;line-height:1.2;margin-top:0pt;margin-bottom:8pt;&quot; dir=&quot;ltr&quot;&gt;&lt;span style=&quot;font-size:13.999999999999998pt;font-family:&#39;Open Sans&#39;,sans-serif;color:#000000;background-color:transparent;font-weight:700;font-style:normal;font-variant:normal;text-decoration:none;vertical-align:baseline;white-space:pre;white-space:pre-wrap;&quot;&gt;Functional Connectivity&lt;/span&gt;&lt;/p&gt;" style="text;html=1;spacing=5;spacingTop=-20;whiteSpace=wrap;overflow=hidden;rounded=0;" vertex="1" parent="WIyWlLk6GJQsqaUBKTNV-1">
          <mxGeometry x="40" y="250" width="280" height="20" as="geometry" />
        </mxCell>
        <mxCell id="pIREazu69p32p8xXgBJM-7" value="" style="rounded=0;whiteSpace=wrap;html=1;strokeWidth=5;strokeColor=#66B2FF;" vertex="1" parent="WIyWlLk6GJQsqaUBKTNV-1">
          <mxGeometry x="413" y="270" width="360" height="550" as="geometry" />
        </mxCell>
        <mxCell id="pIREazu69p32p8xXgBJM-8" value="&lt;p id=&quot;docs-internal-guid-25a0acd7-7fff-86b3-eb7d-2be942f6d44b&quot; style=&quot;line-height:1.2;margin-top:0pt;margin-bottom:8pt;&quot; dir=&quot;ltr&quot;&gt;&lt;span style=&quot;font-size:13.999999999999998pt;font-family:&#39;Open Sans&#39;,sans-serif;color:#000000;background-color:transparent;font-weight:700;font-style:normal;font-variant:normal;text-decoration:none;vertical-align:baseline;white-space:pre;white-space:pre-wrap;&quot;&gt;&lt;/span&gt;&lt;span style=&quot;font-size:13.999999999999998pt;font-family:&#39;Open Sans&#39;,sans-serif;color:#000000;background-color:transparent;font-weight:700;font-style:normal;font-variant:normal;text-decoration:none;vertical-align:baseline;white-space:pre;white-space:pre-wrap;&quot;&gt;BCT Integration&lt;/span&gt;&lt;/p&gt;&lt;ul style=&quot;margin-top:0;margin-bottom:0;padding-inline-start:48px;&quot;&gt;&lt;li aria-level=&quot;1&quot; style=&quot;list-style-type:disc;font-size:13.999999999999998pt;font-family:&#39;Open Sans&#39;,sans-serif;color:#000000;background-color:transparent;font-weight:400;font-style:normal;font-variant:normal;text-decoration:none;vertical-align:baseline;white-space:pre;&quot; dir=&quot;ltr&quot;&gt;&lt;p role=&quot;presentation&quot; style=&quot;line-height:1.2;margin-top:0pt;margin-bottom:8pt;&quot; dir=&quot;ltr&quot;&gt;&lt;span style=&quot;font-size:13.999999999999998pt;font-family:&#39;Open Sans&#39;,sans-serif;color:#000000;background-color:transparent;font-weight:400;font-style:normal;font-variant:normal;text-decoration:none;vertical-align:baseline;white-space:pre;white-space:pre-wrap;&quot;&gt;BCT functions can be used seamlessly for multiverse analysis&lt;/span&gt;&lt;/p&gt;&lt;/li&gt;&lt;/ul&gt;&lt;p style=&quot;line-height:1.2;margin-top:0pt;margin-bottom:8pt;&quot; dir=&quot;ltr&quot;&gt;&lt;span style=&quot;font-size:13.999999999999998pt;font-family:&#39;Open Sans&#39;,sans-serif;color:#000000;background-color:transparent;font-weight:700;font-style:normal;font-variant:normal;text-decoration:none;vertical-align:baseline;white-space:pre;white-space:pre-wrap;&quot;&gt;High performance algorithms&lt;/span&gt;&lt;/p&gt;&lt;ul style=&quot;margin-top:0;margin-bottom:0;padding-inline-start:48px;&quot;&gt;&lt;li aria-level=&quot;1&quot; style=&quot;list-style-type:disc;font-size:13.999999999999998pt;font-family:&#39;Open Sans&#39;,sans-serif;color:#000000;background-color:transparent;font-weight:400;font-style:normal;font-variant:normal;text-decoration:none;vertical-align:baseline;white-space:pre;&quot; dir=&quot;ltr&quot;&gt;&lt;p role=&quot;presentation&quot; style=&quot;line-height:1.2;margin-top:0pt;margin-bottom:0pt;&quot; dir=&quot;ltr&quot;&gt;&lt;span style=&quot;font-size:13.999999999999998pt;font-family:&#39;Open Sans&#39;,sans-serif;color:#000000;background-color:transparent;font-weight:400;font-style:normal;font-variant:normal;text-decoration:none;vertical-align:baseline;white-space:pre;white-space:pre-wrap;&quot;&gt;Average Path Length&lt;/span&gt;&lt;/p&gt;&lt;/li&gt;&lt;li aria-level=&quot;1&quot; style=&quot;list-style-type:disc;font-size:13.999999999999998pt;font-family:&#39;Open Sans&#39;,sans-serif;color:#000000;background-color:transparent;font-weight:400;font-style:normal;font-variant:normal;text-decoration:none;vertical-align:baseline;white-space:pre;&quot; dir=&quot;ltr&quot;&gt;&lt;p role=&quot;presentation&quot; style=&quot;line-height:1.2;margin-top:0pt;margin-bottom:0pt;&quot; dir=&quot;ltr&quot;&gt;&lt;span style=&quot;font-size:13.999999999999998pt;font-family:&#39;Open Sans&#39;,sans-serif;color:#000000;background-color:transparent;font-weight:400;font-style:normal;font-variant:normal;text-decoration:none;vertical-align:baseline;white-space:pre;white-space:pre-wrap;&quot;&gt;Global Efficiency&lt;/span&gt;&lt;/p&gt;&lt;/li&gt;&lt;li aria-level=&quot;1&quot; style=&quot;list-style-type:disc;font-size:13.999999999999998pt;font-family:&#39;Open Sans&#39;,sans-serif;color:#000000;background-color:transparent;font-weight:400;font-style:normal;font-variant:normal;text-decoration:none;vertical-align:baseline;white-space:pre;&quot; dir=&quot;ltr&quot;&gt;&lt;p role=&quot;presentation&quot; style=&quot;line-height:1.2;margin-top:0pt;margin-bottom:0pt;&quot; dir=&quot;ltr&quot;&gt;&lt;span style=&quot;font-size:13.999999999999998pt;font-family:&#39;Open Sans&#39;,sans-serif;color:#000000;background-color:transparent;font-weight:400;font-style:normal;font-variant:normal;text-decoration:none;vertical-align:baseline;white-space:pre;white-space:pre-wrap;&quot;&gt;Nodal Efficiency&lt;/span&gt;&lt;/p&gt;&lt;/li&gt;&lt;li aria-level=&quot;1&quot; style=&quot;list-style-type:disc;font-size:13.999999999999998pt;font-family:&#39;Open Sans&#39;,sans-serif;color:#000000;background-color:transparent;font-weight:400;font-style:normal;font-variant:normal;text-decoration:none;vertical-align:baseline;white-space:pre;&quot; dir=&quot;ltr&quot;&gt;&lt;p role=&quot;presentation&quot; style=&quot;line-height:1.2;margin-top:0pt;margin-bottom:0pt;&quot; dir=&quot;ltr&quot;&gt;&lt;span style=&quot;font-size:13.999999999999998pt;font-family:&#39;Open Sans&#39;,sans-serif;color:#000000;background-color:transparent;font-weight:400;font-style:normal;font-variant:normal;text-decoration:none;vertical-align:baseline;white-space:pre;white-space:pre-wrap;&quot;&gt;Small-World Sigma&lt;/span&gt;&lt;/p&gt;&lt;/li&gt;&lt;li aria-level=&quot;1&quot; style=&quot;list-style-type:disc;font-size:13.999999999999998pt;font-family:&#39;Open Sans&#39;,sans-serif;color:#000000;background-color:transparent;font-weight:400;font-style:normal;font-variant:normal;text-decoration:none;vertical-align:baseline;white-space:pre;&quot; dir=&quot;ltr&quot;&gt;&lt;p role=&quot;presentation&quot; style=&quot;line-height:1.2;margin-top:0pt;margin-bottom:0pt;&quot; dir=&quot;ltr&quot;&gt;&lt;span style=&quot;font-size:13.999999999999998pt;font-family:&#39;Open Sans&#39;,sans-serif;color:#000000;background-color:transparent;font-weight:400;font-style:normal;font-variant:normal;text-decoration:none;vertical-align:baseline;white-space:pre;white-space:pre-wrap;&quot;&gt;Small-World Propensity&lt;/span&gt;&lt;/p&gt;&lt;/li&gt;&lt;li aria-level=&quot;1&quot; style=&quot;list-style-type:disc;font-size:13.999999999999998pt;font-family:&#39;Open Sans&#39;,sans-serif;color:#000000;background-color:transparent;font-weight:400;font-style:normal;font-variant:normal;text-decoration:none;vertical-align:baseline;white-space:pre;&quot; dir=&quot;ltr&quot;&gt;&lt;p role=&quot;presentation&quot; style=&quot;line-height:1.2;margin-top:0pt;margin-bottom:8pt;&quot; dir=&quot;ltr&quot;&gt;&lt;span style=&quot;font-size:13.999999999999998pt;font-family:&#39;Open Sans&#39;,sans-serif;color:#000000;background-color:transparent;font-weight:400;font-style:normal;font-variant:normal;text-decoration:none;vertical-align:baseline;white-space:pre;white-space:pre-wrap;&quot;&gt;Matching Index&lt;/span&gt;&lt;/p&gt;&lt;/li&gt;&lt;/ul&gt;&lt;p style=&quot;line-height:1.2;margin-top:0pt;margin-bottom:8pt;&quot; dir=&quot;ltr&quot;&gt;&lt;span style=&quot;font-size:13.999999999999998pt;font-family:&#39;Open Sans&#39;,sans-serif;color:#000000;background-color:transparent;font-weight:700;font-style:normal;font-variant:normal;text-decoration:none;vertical-align:baseline;white-space:pre;white-space:pre-wrap;&quot;&gt;Standard Graph Functions&lt;/span&gt;&lt;/p&gt;&lt;ul style=&quot;margin-top:0;margin-bottom:0;padding-inline-start:48px;&quot;&gt;&lt;li aria-level=&quot;1&quot; style=&quot;list-style-type:disc;font-size:13.999999999999998pt;font-family:&#39;Open Sans&#39;,sans-serif;color:#000000;background-color:transparent;font-weight:400;font-style:normal;font-variant:normal;text-decoration:none;vertical-align:baseline;white-space:pre;&quot; dir=&quot;ltr&quot;&gt;&lt;p role=&quot;presentation&quot; style=&quot;line-height:1.2;margin-top:0pt;margin-bottom:0pt;&quot; dir=&quot;ltr&quot;&gt;&lt;span style=&quot;font-size:13.999999999999998pt;font-family:&#39;Open Sans&#39;,sans-serif;color:#000000;background-color:transparent;font-weight:400;font-style:normal;font-variant:normal;text-decoration:none;vertical-align:baseline;white-space:pre;white-space:pre-wrap;&quot;&gt;Threshold&lt;/span&gt;&lt;/p&gt;&lt;/li&gt;&lt;li aria-level=&quot;1&quot; style=&quot;list-style-type:disc;font-size:13.999999999999998pt;font-family:&#39;Open Sans&#39;,sans-serif;color:#000000;background-color:transparent;font-weight:400;font-style:normal;font-variant:normal;text-decoration:none;vertical-align:baseline;white-space:pre;&quot; dir=&quot;ltr&quot;&gt;&lt;p role=&quot;presentation&quot; style=&quot;line-height:1.2;margin-top:0pt;margin-bottom:0pt;&quot; dir=&quot;ltr&quot;&gt;&lt;span style=&quot;font-size:13.999999999999998pt;font-family:&#39;Open Sans&#39;,sans-serif;color:#000000;background-color:transparent;font-weight:400;font-style:normal;font-variant:normal;text-decoration:none;vertical-align:baseline;white-space:pre;white-space:pre-wrap;&quot;&gt;Binarise&lt;/span&gt;&lt;/p&gt;&lt;/li&gt;&lt;li aria-level=&quot;1&quot; style=&quot;list-style-type:disc;font-size:13.999999999999998pt;font-family:&#39;Open Sans&#39;,sans-serif;color:#000000;background-color:transparent;font-weight:400;font-style:normal;font-variant:normal;text-decoration:none;vertical-align:baseline;white-space:pre;&quot; dir=&quot;ltr&quot;&gt;&lt;p role=&quot;presentation&quot; style=&quot;line-height:1.2;margin-top:0pt;margin-bottom:0pt;&quot; dir=&quot;ltr&quot;&gt;&lt;span style=&quot;font-size:13.999999999999998pt;font-family:&#39;Open Sans&#39;,sans-serif;color:#000000;background-color:transparent;font-weight:400;font-style:normal;font-variant:normal;text-decoration:none;vertical-align:baseline;white-space:pre;white-space:pre-wrap;&quot;&gt;Symmetrize&lt;/span&gt;&lt;/p&gt;&lt;/li&gt;&lt;li aria-level=&quot;1&quot; style=&quot;list-style-type:disc;font-size:13.999999999999998pt;font-family:&#39;Open Sans&#39;,sans-serif;color:#000000;background-color:transparent;font-weight:400;font-style:normal;font-variant:normal;text-decoration:none;vertical-align:baseline;white-space:pre;&quot; dir=&quot;ltr&quot;&gt;&lt;span style=&quot;font-size:13.999999999999998pt;font-family:&#39;Open Sans&#39;,sans-serif;color:#000000;background-color:transparent;font-weight:400;font-style:normal;font-variant:normal;text-decoration:none;vertical-align:baseline;white-space:pre;white-space:pre-wrap;&quot;&gt;Handle negative weights&lt;/span&gt;&lt;/li&gt;&lt;li aria-level=&quot;1&quot; style=&quot;list-style-type:disc;font-size:13.999999999999998pt;font-family:&#39;Open Sans&#39;,sans-serif;color:#000000;background-color:transparent;font-weight:400;font-style:normal;font-variant:normal;text-decoration:none;vertical-align:baseline;white-space:pre;&quot; dir=&quot;ltr&quot;&gt;&lt;span style=&quot;font-size:13.999999999999998pt;font-family:&#39;Open Sans&#39;,sans-serif;color:#000000;background-color:transparent;font-weight:400;font-style:normal;font-variant:normal;text-decoration:none;vertical-align:baseline;white-space:pre;white-space:pre-wrap;&quot;&gt;...&lt;br&gt;&lt;/span&gt;&lt;/li&gt;&lt;/ul&gt;" style="text;html=1;spacing=5;spacingTop=-20;whiteSpace=wrap;overflow=hidden;rounded=0;" vertex="1" parent="WIyWlLk6GJQsqaUBKTNV-1">
          <mxGeometry x="423" y="300" width="350" height="500" as="geometry" />
        </mxCell>
        <mxCell id="pIREazu69p32p8xXgBJM-9" value="" style="rounded=0;whiteSpace=wrap;html=1;strokeWidth=5;fillColor=#dae8fc;strokeColor=#66B2FF;" vertex="1" parent="WIyWlLk6GJQsqaUBKTNV-1">
          <mxGeometry x="413" y="230" width="360" height="40" as="geometry" />
        </mxCell>
        <mxCell id="pIREazu69p32p8xXgBJM-10" value="&lt;p id=&quot;docs-internal-guid-25a0acd7-7fff-86b3-eb7d-2be942f6d44b&quot; style=&quot;line-height:1.2;margin-top:0pt;margin-bottom:8pt;&quot; dir=&quot;ltr&quot;&gt;&lt;span style=&quot;font-size:13.999999999999998pt;font-family:&#39;Open Sans&#39;,sans-serif;color:#000000;background-color:transparent;font-weight:700;font-style:normal;font-variant:normal;text-decoration:none;vertical-align:baseline;white-space:pre;white-space:pre-wrap;&quot;&gt;Graph Analysis&lt;br&gt;&lt;/span&gt;&lt;/p&gt;" style="text;html=1;spacing=5;spacingTop=-20;whiteSpace=wrap;overflow=hidden;rounded=0;" vertex="1" parent="WIyWlLk6GJQsqaUBKTNV-1">
          <mxGeometry x="423" y="250" width="280" height="20" as="geometry" />
        </mxCell>
        <mxCell id="pIREazu69p32p8xXgBJM-11" value="" style="rounded=0;whiteSpace=wrap;html=1;strokeWidth=5;strokeColor=#66B2FF;" vertex="1" parent="WIyWlLk6GJQsqaUBKTNV-1">
          <mxGeometry x="800" y="270" width="360" height="550" as="geometry" />
        </mxCell>
        <mxCell id="pIREazu69p32p8xXgBJM-12" value="&lt;p id=&quot;docs-internal-guid-25a0acd7-7fff-86b3-eb7d-2be942f6d44b&quot; style=&quot;line-height:1.2;margin-top:0pt;margin-bottom:8pt;&quot; dir=&quot;ltr&quot;&gt;&lt;span style=&quot;font-size:13.999999999999998pt;font-family:&#39;Open Sans&#39;,sans-serif;color:#000000;background-color:transparent;font-weight:700;font-style:normal;font-variant:normal;text-decoration:none;vertical-align:baseline;white-space:pre;white-space:pre-wrap;&quot;&gt;&lt;/span&gt;&lt;span style=&quot;font-size:13.999999999999998pt;font-family:&#39;Open Sans&#39;,sans-serif;color:#000000;background-color:transparent;font-weight:700;font-style:normal;font-variant:normal;text-decoration:none;vertical-align:baseline;white-space:pre;white-space:pre-wrap;&quot;&gt;Definition&lt;/span&gt;&lt;/p&gt;&lt;ul style=&quot;margin-top:0;margin-bottom:0;padding-inline-start:48px;&quot;&gt;&lt;li aria-level=&quot;1&quot; style=&quot;list-style-type:disc;font-size:13.999999999999998pt;font-family:&#39;Open Sans&#39;,sans-serif;color:#000000;background-color:transparent;font-weight:400;font-style:normal;font-variant:normal;text-decoration:none;vertical-align:baseline;white-space:pre;&quot; dir=&quot;ltr&quot;&gt;&lt;p role=&quot;presentation&quot; style=&quot;line-height:1.2;margin-top:0pt;margin-bottom:0pt;&quot; dir=&quot;ltr&quot;&gt;&lt;span style=&quot;font-size:13.999999999999998pt;font-family:&#39;Open Sans&#39;,sans-serif;color:#000000;background-color:transparent;font-weight:400;font-style:normal;font-variant:normal;text-decoration:none;vertical-align:baseline;white-space:pre;white-space:pre-wrap;&quot;&gt;Forking paths&lt;/span&gt;&lt;/p&gt;&lt;/li&gt;&lt;li aria-level=&quot;1&quot; style=&quot;list-style-type:disc;font-size:13.999999999999998pt;font-family:&#39;Open Sans&#39;,sans-serif;color:#000000;background-color:transparent;font-weight:400;font-style:normal;font-variant:normal;text-decoration:none;vertical-align:baseline;white-space:pre;&quot; dir=&quot;ltr&quot;&gt;&lt;p role=&quot;presentation&quot; style=&quot;line-height:1.2;margin-top:0pt;margin-bottom:8pt;&quot; dir=&quot;ltr&quot;&gt;&lt;span style=&quot;font-size:13.999999999999998pt;font-family:&#39;Open Sans&#39;,sans-serif;color:#000000;background-color:transparent;font-weight:400;font-style:normal;font-variant:normal;text-decoration:none;vertical-align:baseline;white-space:pre;white-space:pre-wrap;&quot;&gt;Analysis pipeline template&lt;/span&gt;&lt;/p&gt;&lt;/li&gt;&lt;/ul&gt;&lt;p style=&quot;line-height:1.2;margin-top:0pt;margin-bottom:8pt;&quot; dir=&quot;ltr&quot;&gt;&lt;span style=&quot;font-size:13.999999999999998pt;font-family:&#39;Open Sans&#39;,sans-serif;color:#000000;background-color:transparent;font-weight:700;font-style:normal;font-variant:normal;text-decoration:none;vertical-align:baseline;white-space:pre;white-space:pre-wrap;&quot;&gt;Generation&lt;/span&gt;&lt;/p&gt;&lt;ul style=&quot;margin-top:0;margin-bottom:0;padding-inline-start:48px;&quot;&gt;&lt;li aria-level=&quot;1&quot; style=&quot;list-style-type:disc;font-size:13.999999999999998pt;font-family:&#39;Open Sans&#39;,sans-serif;color:#000000;background-color:transparent;font-weight:400;font-style:normal;font-variant:normal;text-decoration:none;vertical-align:baseline;white-space:pre;&quot; dir=&quot;ltr&quot;&gt;&lt;p role=&quot;presentation&quot; style=&quot;line-height:1.2;margin-top:0pt;margin-bottom:0pt;&quot; dir=&quot;ltr&quot;&gt;&lt;span style=&quot;font-size:13.999999999999998pt;font-family:&#39;Open Sans&#39;,sans-serif;color:#000000;background-color:transparent;font-weight:400;font-style:normal;font-variant:normal;text-decoration:none;vertical-align:baseline;white-space:pre;white-space:pre-wrap;&quot;&gt;Universes as individual scripts&lt;/span&gt;&lt;/p&gt;&lt;/li&gt;&lt;li aria-level=&quot;1&quot; style=&quot;list-style-type:disc;font-size:13.999999999999998pt;font-family:&#39;Open Sans&#39;,sans-serif;color:#000000;background-color:transparent;font-weight:400;font-style:normal;font-variant:normal;text-decoration:none;vertical-align:baseline;white-space:pre;&quot; dir=&quot;ltr&quot;&gt;&lt;p role=&quot;presentation&quot; style=&quot;line-height:1.2;margin-top:0pt;margin-bottom:8pt;&quot; dir=&quot;ltr&quot;&gt;&lt;span style=&quot;font-size:13.999999999999998pt;font-family:&#39;Open Sans&#39;,sans-serif;color:#000000;background-color:transparent;font-weight:400;font-style:normal;font-variant:normal;text-decoration:none;vertical-align:baseline;white-space:pre;white-space:pre-wrap;&quot;&gt;Modular approach&lt;/span&gt;&lt;/p&gt;&lt;/li&gt;&lt;/ul&gt;&lt;p style=&quot;line-height:1.2;margin-top:0pt;margin-bottom:8pt;&quot; dir=&quot;ltr&quot;&gt;&lt;span style=&quot;font-size:13.999999999999998pt;font-family:&#39;Open Sans&#39;,sans-serif;color:#000000;background-color:transparent;font-weight:700;font-style:normal;font-variant:normal;text-decoration:none;vertical-align:baseline;white-space:pre;white-space:pre-wrap;&quot;&gt;Analysis&lt;/span&gt;&lt;/p&gt;&lt;ul style=&quot;margin-top:0;margin-bottom:0;padding-inline-start:48px;&quot;&gt;&lt;li aria-level=&quot;1&quot; style=&quot;list-style-type:disc;font-size:13.999999999999998pt;font-family:&#39;Open Sans&#39;,sans-serif;color:#000000;background-color:transparent;font-weight:400;font-style:normal;font-variant:normal;text-decoration:none;vertical-align:baseline;white-space:pre;&quot; dir=&quot;ltr&quot;&gt;&lt;p role=&quot;presentation&quot; style=&quot;line-height:1.2;margin-top:0pt;margin-bottom:0pt;&quot; dir=&quot;ltr&quot;&gt;&lt;span style=&quot;font-size:13.999999999999998pt;font-family:&#39;Open Sans&#39;,sans-serif;color:#000000;background-color:transparent;font-weight:400;font-style:normal;font-variant:normal;text-decoration:none;vertical-align:baseline;white-space:pre;white-space:pre-wrap;&quot;&gt;Individual universes&lt;/span&gt;&lt;/p&gt;&lt;/li&gt;&lt;li aria-level=&quot;1&quot; style=&quot;list-style-type:disc;font-size:13.999999999999998pt;font-family:&#39;Open Sans&#39;,sans-serif;color:#000000;background-color:transparent;font-weight:400;font-style:normal;font-variant:normal;text-decoration:none;vertical-align:baseline;white-space:pre;&quot; dir=&quot;ltr&quot;&gt;&lt;p role=&quot;presentation&quot; style=&quot;line-height:1.2;margin-top:0pt;margin-bottom:8pt;&quot; dir=&quot;ltr&quot;&gt;&lt;span style=&quot;font-size:13.999999999999998pt;font-family:&#39;Open Sans&#39;,sans-serif;color:#000000;background-color:transparent;font-weight:400;font-style:normal;font-variant:normal;text-decoration:none;vertical-align:baseline;white-space:pre;white-space:pre-wrap;&quot;&gt;Entire multiverse (parallel)&lt;/span&gt;&lt;/p&gt;&lt;/li&gt;&lt;/ul&gt;&lt;p style=&quot;line-height:1.2;margin-top:0pt;margin-bottom:8pt;&quot; dir=&quot;ltr&quot;&gt;&lt;span style=&quot;font-size:13.999999999999998pt;font-family:&#39;Open Sans&#39;,sans-serif;color:#000000;background-color:transparent;font-weight:700;font-style:normal;font-variant:normal;text-decoration:none;vertical-align:baseline;white-space:pre;white-space:pre-wrap;&quot;&gt;Visualization&lt;/span&gt;&lt;/p&gt;&lt;ul style=&quot;margin-top:0;margin-bottom:0;padding-inline-start:48px;&quot;&gt;&lt;li aria-level=&quot;1&quot; style=&quot;list-style-type:disc;font-size:13.999999999999998pt;font-family:&#39;Open Sans&#39;,sans-serif;color:#000000;background-color:transparent;font-weight:400;font-style:normal;font-variant:normal;text-decoration:none;vertical-align:baseline;white-space:pre;&quot; dir=&quot;ltr&quot;&gt;&lt;p role=&quot;presentation&quot; style=&quot;line-height:1.2;margin-top:0pt;margin-bottom:0pt;&quot; dir=&quot;ltr&quot;&gt;&lt;span style=&quot;font-size:13.999999999999998pt;font-family:&#39;Open Sans&#39;,sans-serif;color:#000000;background-color:transparent;font-weight:400;font-style:normal;font-variant:normal;text-decoration:none;vertical-align:baseline;white-space:pre;white-space:pre-wrap;&quot;&gt;Multiverse Overview&lt;/span&gt;&lt;/p&gt;&lt;/li&gt;&lt;li aria-level=&quot;1&quot; style=&quot;list-style-type:disc;font-size:13.999999999999998pt;font-family:&#39;Open Sans&#39;,sans-serif;color:#000000;background-color:transparent;font-weight:400;font-style:normal;font-variant:normal;text-decoration:none;vertical-align:baseline;white-space:pre;&quot; dir=&quot;ltr&quot;&gt;&lt;p role=&quot;presentation&quot; style=&quot;line-height:1.2;margin-top:0pt;margin-bottom:8pt;&quot; dir=&quot;ltr&quot;&gt;&lt;span style=&quot;font-size:13.999999999999998pt;font-family:&#39;Open Sans&#39;,sans-serif;color:#000000;background-color:transparent;font-weight:400;font-style:normal;font-variant:normal;text-decoration:none;vertical-align:baseline;white-space:pre;white-space:pre-wrap;&quot;&gt;Specification Curve&lt;br&gt;&lt;/span&gt;&lt;/p&gt;&lt;br&gt;&lt;/li&gt;&lt;/ul&gt;&lt;p style=&quot;line-height:1.2;margin-top:0pt;margin-bottom:8pt;&quot; dir=&quot;ltr&quot;&gt;&lt;/p&gt;" style="text;html=1;spacing=5;spacingTop=-20;whiteSpace=wrap;overflow=hidden;rounded=0;" vertex="1" parent="WIyWlLk6GJQsqaUBKTNV-1">
          <mxGeometry x="810" y="300" width="350" height="500" as="geometry" />
        </mxCell>
        <mxCell id="pIREazu69p32p8xXgBJM-13" value="" style="rounded=0;whiteSpace=wrap;html=1;strokeWidth=5;fillColor=#dae8fc;strokeColor=#66B2FF;" vertex="1" parent="WIyWlLk6GJQsqaUBKTNV-1">
          <mxGeometry x="800" y="230" width="360" height="40" as="geometry" />
        </mxCell>
        <mxCell id="pIREazu69p32p8xXgBJM-14" value="&lt;p id=&quot;docs-internal-guid-25a0acd7-7fff-86b3-eb7d-2be942f6d44b&quot; style=&quot;line-height:1.2;margin-top:0pt;margin-bottom:8pt;&quot; dir=&quot;ltr&quot;&gt;&lt;span style=&quot;font-size:13.999999999999998pt;font-family:&#39;Open Sans&#39;,sans-serif;color:#000000;background-color:transparent;font-weight:700;font-style:normal;font-variant:normal;text-decoration:none;vertical-align:baseline;white-space:pre;white-space:pre-wrap;&quot;&gt;Multiverse Analysis&lt;br&gt;&lt;/span&gt;&lt;/p&gt;" style="text;html=1;spacing=5;spacingTop=-20;whiteSpace=wrap;overflow=hidden;rounded=0;" vertex="1" parent="WIyWlLk6GJQsqaUBKTNV-1">
          <mxGeometry x="810" y="250" width="280" height="20" as="geometry" />
        </mxCell>
      </root>
    </mxGraphModel>
  </diagram>
</mxfile>
